<?xml version="1.0" encoding="UTF-8"?>
<svg id="Layer_1" data-name="Layer 1" xmlns="http://www.w3.org/2000/svg" viewBox="0 0 496.06 85.33">
  <defs>
    <style>
      .cls-1 {
        fill: #fff;
      }

      .cls-2 {
        fill: #e2dddb;
      }

      .cls-3 {
        fill: #f5333f;
      }

      .cls-4 {
        fill: #00ae42;
      }

      .cls-5 {
        fill: #2d2a26;
      }
    </style>
  </defs>
  <g>
    <path class="cls-1" d="m451.42,15.33c0,7.39,5.65,13.64,12.34,13.64h29.97s-.36-1-.36-1c-1.9-5.33-4.79-10.18-8.59-14.41l-.23-.25h-31.7v-.51c0-5.61-3.36-10.61-8.57-12.71l-.21-.09-.22.05c-9.15,1.86-17.3,6.53-23.57,13.52l-1.13,1.26h32.27v.51Z"/>
    <path class="cls-1" d="m452.94,42.13v-.49c0-7.45-5.7-13.75-12.45-13.75h-28.76s-.18.51-.18.51c-1.58,4.57-2.38,9.35-2.38,14.21v1.05h42.33v.27c0,7.41,5.66,13.67,12.37,13.67h29.53s.18-.51.18-.51c1.61-4.55,2.44-9.33,2.47-14.19v-.76s-43.11,0-43.11,0Z"/>
    <path class="cls-1" d="m452.94,70.16c0-7.45-5.7-13.74-12.46-13.74h-29.08s.37,1,.37,1c1.95,5.38,4.91,10.27,8.8,14.51l.22.25h30.71v.22c0,5.67,3.56,10.83,8.86,12.85l.2.08.21-.04c9.11-1.73,17.6-6.48,23.89-13.36l1.16-1.27h-32.89v-.5Z"/>
    <path class="cls-3" d="m452.1,12.8c0-5.44-3.35-10.09-8.09-12.01-9.12,1.85-17.17,6.62-23.16,13.28h31.26v-1.27Z"/>
    <path class="cls-4" d="m452.17,15.33c0,6.69,5.09,12.89,11.59,12.89h28.9c-1.88-5.27-4.77-10.07-8.44-14.15h-32.04v1.27Z"/>
    <path class="cls-3" d="m452.19,41.64c0-6.71-5.17-12.99-11.69-12.99h-28.22c-1.51,4.38-2.34,9.08-2.34,13.97,0,.1,0,.2,0,.29h42.25v-1.27Z"/>
    <path class="cls-2" d="m452.26,43.93c0,6.71,5.1,12.92,11.61,12.92,0,0,15.82,0,28.99,0,1.54-4.37,2.4-9.06,2.43-13.95h-43.04s0,1.03,0,1.03Z"/>
    <path class="cls-3" d="m452.19,70.16c0-6.71-5.1-12.99-11.7-12.98h-28c1.93,5.32,4.89,10.15,8.65,14.25h31.06v-1.27Z"/>
    <path class="cls-5" d="m452.26,72.4c0,5.55,3.48,10.28,8.38,12.14,9.22-1.75,17.39-6.47,23.48-13.13h-31.86v.98Z"/>
  </g>
  <g>
    <path class="cls-1" d="m26.04,57.96C7.81,57.96,0,50.76,0,35.75V14.27h15.38v21.47c0,4.61,1.6,8.67,10.65,8.67s10.65-4.12,10.65-8.67V14.27h15.38v21.47c0,14.95-7.87,22.21-26.03,22.21Z"/>
    <path class="cls-1" d="m87.98,49.59h-17.63l-2.84,7.75h-16.92l17.16-43.07h22.84l17.16,43.07h-16.92l-2.84-7.75Zm-4.02-11.07l-4.79-13.17-4.79,13.17h9.59Z"/>
    <path class="cls-1" d="m126.37,26.58v4h28.4v10.46h-28.4v4h28.4v12.3h-43.79V14.27h43.79v12.31h-28.4Z"/>
    <path class="cls-1" d="m222.04,57.34h-15.38v-20.49l-11.3,20.49h-10.06l-11.3-20.49v20.49h-15.38V14.27h18.93l12.78,24.61,12.78-24.61h18.93v43.07Z"/>
    <path class="cls-1" d="m289.9,57.34h-15.38v-20.49l-11.3,20.49h-10.06l-11.3-20.49v20.49h-15.38V14.27h18.93l12.78,24.61,12.78-24.61h18.93v43.07Z"/>
    <path class="cls-1" d="m330.54,49.59h-17.63l-2.84,7.75h-16.92l17.16-43.07h22.84l17.16,43.07h-16.92l-2.84-7.75Zm-4.02-11.07l-4.79-13.17-4.79,13.17h9.58Z"/>
    <path class="cls-1" d="m368.93,27.81v4.61h24.85v13.53h-24.85v11.38h-15.38V14.27h43.79v13.54h-28.4Z"/>
  </g>
  <path class="cls-3" d="m.42,68.87c0-.08.03-.11.11-.11h1.87c.08,0,.11.03.11.11v10.15c0,.95.34,1.79,1.02,2.51.68.73,1.49,1.1,2.42,1.1s1.72-.37,2.39-1.1c.67-.72,1-1.56,1-2.51v-10.15c0-.08.03-.11.11-.11h1.87c.08,0,.12.03.12.11v10.15c.06,2.99-2.49,5.54-5.49,5.48-1.54,0-2.84-.53-3.92-1.59s-1.61-2.36-1.61-3.88v-10.15Z"/>
  <path class="cls-3" d="m18.77,68.87c.02-.08.06-.11.13-.11h2.71c.08,0,.12.03.14.11l5.13,15.3c.01.05-.03.11-.11.11h-2.08c-.05,0-.09-.03-.11-.11l-1.01-3.15c-.01-.08-.06-.11-.16-.11h-6.39c-.06,0-.11.03-.13.11l-1.03,3.15c-.02.08-.05.11-.11.11h-2.06c-.06,0-.15-.02-.13-.11l5.2-15.3Zm-1.23,10.17s-.01.03-.01.04c0,.04.03.06.1.06h5.22c.06,0,.1-.02.1-.06,0-.01,0-.03-.01-.04l-2.57-8.07c-.04-.13-.18-.13-.23,0l-2.59,8.07Z"/>
  <path class="cls-3" d="m29.01,68.87c0-.08.03-.11.11-.11h10.6c.08,0,.12.03.12.11v1.66c0,.08-.04.11-.12.11h-8.5c-.08,0-.11.04-.11.12v4.49c0,.08.03.12.11.12h7.6c.08,0,.12.03.12.11v1.65c0,.08-.04.12-.12.12h-7.6c-.08,0-.11.03-.11.11v4.96c0,.08.03.11.11.11h8.5c.08,0,.12.03.12.11v1.66c0,.08-.04.11-.12.11h-10.6c-.08,0-.11-.03-.11-.11v-15.3Z"/>
  <path class="cls-1" d="m47.48,68.87c0-.08.03-.11.11-.11h3.57c.06,0,.12.03.15.11l3.93,13.23c.04.1.17.1.22,0l3.93-13.23c.03-.08.09-.11.15-.11h3.57c.08,0,.11.03.11.11v15.3c0,.08-.03.11-.11.11h-1.87c-.08,0-.11-.03-.11-.11v-13.2c0-.14-.19-.14-.23-.02l-3.87,13.23c-.02.08-.09.11-.18.11h-2.99c-.1,0-.15-.03-.17-.11l-3.88-13.23c-.04-.13-.22-.11-.22.02v13.2c0,.08-.04.11-.12.11h-1.87c-.08,0-.11-.03-.11-.11v-15.3Z"/>
  <path class="cls-1" d="m66.2,68.87c0-.08.03-.11.11-.11h1.87c.08,0,.12.03.12.11v15.3c0,.08-.04.11-.12.11h-1.87c-.08,0-.11-.03-.11-.11v-15.3Z"/>
  <path class="cls-1" d="m70.66,84.17l5.07-7.57c.03-.05.03-.12,0-.17l-5.07-7.57s-.02-.03-.02-.04,0-.02.01-.03c.01-.02.04-.03.08-.03h2.23c.06,0,.12.03.17.11l3.77,5.82c.08.1.15.1.23,0l3.79-5.82c.05-.08.13-.11.22-.11h2.18s.06.01.08.03c.01.01.02.04-.01.08l-5.07,7.57c-.03.05-.03.12,0,.17l5.07,7.57s.02.03.02.04,0,.02-.01.03c-.01.02-.04.03-.08.03h-2.25c-.05,0-.1-.03-.15-.11l-3.79-5.82c-.08-.1-.15-.1-.23,0-.33.53-.81,1.28-1.43,2.25-.63.97-1.17,1.81-1.64,2.52l-.7,1.05c-.05.08-.11.11-.17.11h-2.23s-.06-.01-.08-.03c-.01-.01-.02-.04.01-.08Z"/>
  <path class="cls-1" d="m85.41,68.87c0-.08.03-.11.11-.11h10.6c.08,0,.12.03.12.11v1.66c0,.08-.04.11-.12.11h-8.5c-.08,0-.11.04-.11.12v4.49c0,.08.03.12.11.12h7.6c.08,0,.12.03.12.11v1.65c0,.08-.04.12-.12.12h-7.6c-.08,0-.11.03-.11.11v4.96c0,.08.03.11.11.11h8.5c.08,0,.12.03.12.11v1.66c0,.08-.04.11-.12.11h-10.6c-.08,0-.11-.03-.11-.11v-15.3Z"/>
  <path class="cls-1" d="m98.81,68.87c0-.08.03-.11.11-.11h5.69c2.27.01,4.07.82,5.2,2.23,1.12,1.41,1.7,3.35,1.7,5.68s-.58,4.25-1.74,5.6c-1.17,1.35-2.88,2.01-5.15,2.01h-5.69c-.08,0-.11-.03-.11-.11v-15.3Zm2.1,13.43c0,.08.03.11.11.11h3.59c2.97,0,4.69-2.02,4.69-5.74,0-1.85-.42-3.33-1.25-4.41s-1.98-1.62-3.44-1.62h-3.59c-.08,0-.11.04-.11.12v11.55Z"/>
  <path class="cls-1" d="m118.92,68.87c0-.08.03-.11.11-.11h3.57c.06,0,.12.03.15.11l3.93,13.23c.04.1.17.1.22,0l3.93-13.23c.03-.08.09-.11.15-.11h3.57c.08,0,.11.03.11.11v15.3c0,.08-.03.11-.11.11h-1.87c-.08,0-.11-.03-.11-.11v-13.2c0-.14-.19-.14-.23-.02l-3.87,13.23c-.02.08-.09.11-.18.11h-2.99c-.1,0-.15-.03-.17-.11l-3.88-13.23c-.04-.13-.22-.11-.22.02v13.2c0,.08-.04.11-.12.11h-1.87c-.08,0-.11-.03-.11-.11v-15.3Z"/>
  <path class="cls-1" d="m142.32,68.87c.02-.08.06-.11.13-.11h2.71c.08,0,.12.03.14.11l5.13,15.3c.01.05-.03.11-.11.11h-2.08c-.05,0-.09-.03-.11-.11l-1.01-3.15c-.01-.08-.06-.11-.16-.11h-6.39c-.06,0-.11.03-.13.11l-1.03,3.15c-.02.08-.05.11-.11.11h-2.06c-.06,0-.15-.02-.13-.11l5.2-15.3Zm-1.23,10.17s-.01.03-.01.04c0,.04.03.06.1.06h5.22c.06,0,.1-.02.1-.06,0-.01,0-.03-.01-.04l-2.57-8.07c-.04-.13-.18-.13-.23,0l-2.59,8.07Z"/>
  <path class="cls-1" d="m152.79,68.87c0-.08.03-.11.11-.11h6.44c2.37-.06,4.55,2.16,4.5,4.71,0,.94-.24,1.78-.72,2.53-.48.76-1.12,1.32-1.9,1.69-.06.03-.08.08-.04.15l2.82,6.33s.01.03.01.04c0,.04-.04.06-.12.06h-1.83c-.11,0-.18-.03-.23-.11l-2.65-5.95c-.02-.08-.08-.11-.15-.11h-4.04c-.08,0-.11.03-.11.11v5.95c0,.08-.03.11-.11.11h-1.87c-.08,0-.11-.03-.11-.11v-15.3Zm2.09,7.25c0,.08.03.11.11.11h4.16c.68-.02,1.28-.3,1.81-.84.52-.54.77-1.17.77-1.92s-.27-1.42-.81-1.99c-.55-.57-1.16-.85-1.86-.85h-4.08c-.08,0-.11.04-.11.12v5.37Z"/>
  <path class="cls-1" d="m164.55,68.87c0-.08.03-.11.11-.11h10.82c.08,0,.12.03.12.11v1.66c0,.08-.04.11-.12.11h-4.25c-.08,0-.11.04-.11.12v13.42c0,.08-.03.11-.11.11h-1.87c-.08,0-.12-.03-.12-.11v-13.45c-.03-.05-.06-.09-.11-.09h-4.25c-.08,0-.11-.03-.11-.11v-1.66Z"/>
  <path class="cls-1" d="m177.48,68.87c0-.08.03-.11.11-.11h1.87c.08,0,.12.03.12.11v15.3c0,.08-.04.11-.12.11h-1.87c-.08,0-.11-.03-.11-.11v-15.3Z"/>
  <path class="cls-1" d="m187.24,68.87c.02-.08.06-.11.13-.11h2.71c.08,0,.12.03.14.11l5.13,15.3c.01.05-.03.11-.11.11h-2.08c-.05,0-.09-.03-.11-.11l-1.01-3.15c-.01-.08-.06-.11-.16-.11h-6.39c-.06,0-.11.03-.13.11l-1.03,3.15c-.02.08-.05.11-.11.11h-2.06c-.06,0-.15-.02-.13-.11l5.2-15.3Zm-1.23,10.17s-.01.03-.01.04c0,.04.03.06.1.06h5.22c.06,0,.1-.02.1-.06,0-.01,0-.03-.01-.04l-2.57-8.07c-.04-.13-.18-.13-.23,0l-2.59,8.07Z"/>
  <path class="cls-1" d="m197.61,68.87c0-.08.04-.11.12-.11h1.87c.08,0,.11.03.11.11v13.43c0,.08.03.11.11.11h7.72c.08,0,.11.03.11.11v1.66c0,.08-.03.11-.11.11h-9.8c-.08,0-.12-.03-.12-.11v-15.3Z"/>
  <path class="cls-1" d="m218.5,68.87c.02-.08.06-.11.13-.11h2.71c.08,0,.12.03.14.11l5.13,15.3c.01.05-.03.11-.11.11h-2.08c-.05,0-.09-.03-.11-.11l-1.01-3.15c-.01-.08-.06-.11-.16-.11h-6.39c-.06,0-.11.03-.13.11l-1.03,3.15c-.02.08-.05.11-.11.11h-2.06c-.06,0-.15-.02-.13-.11l5.2-15.3Zm-1.23,10.17s-.01.03-.01.04c0,.04.03.06.1.06h5.22c.06,0,.1-.02.1-.06,0-.01,0-.03-.01-.04l-2.57-8.07c-.04-.13-.18-.13-.23,0l-2.59,8.07Z"/>
  <path class="cls-1" d="m228.97,68.87c0-.08.03-.11.11-.11h6.44c2.37-.06,4.55,2.16,4.5,4.71,0,.94-.24,1.78-.72,2.53-.48.76-1.12,1.32-1.91,1.69-.06.03-.07.08-.04.15l2.82,6.33s.01.03.01.04c0,.04-.04.06-.12.06h-1.83c-.11,0-.18-.03-.23-.11l-2.65-5.95c-.02-.08-.07-.11-.15-.11h-4.04c-.08,0-.11.03-.11.11v5.95c0,.08-.03.11-.11.11h-1.87c-.07,0-.11-.03-.11-.11v-15.3Zm2.09,7.25c0,.08.03.11.11.11h4.17c.68-.02,1.28-.3,1.81-.84.52-.54.77-1.17.77-1.92s-.27-1.42-.81-1.99c-.55-.57-1.16-.85-1.86-.85h-4.08c-.08,0-.11.04-.11.12v5.37Z"/>
  <path class="cls-1" d="m240.73,68.87c0-.08.03-.11.11-.11h10.81c.08,0,.12.03.12.11v1.66c0,.08-.04.11-.12.11h-4.25c-.07,0-.11.04-.11.12v13.42c0,.08-.03.11-.11.11h-1.87c-.08,0-.12-.03-.12-.11v-13.45c-.03-.05-.06-.09-.11-.09h-4.25c-.08,0-.11-.03-.11-.11v-1.66Z"/>
  <path class="cls-1" d="m252.91,79.91h1.96c.05,0,.13.06.13.14,0,.57.32,1.18.9,1.69.58.52,1.58.88,2.78.88,1.13,0,2.02-.26,2.69-.79.66-.53.99-1.16.99-1.93-.04-1.17-.59-1.82-1.56-2.15-.69-.25-1.25-.33-2.12-.42-.81-.09-1.38-.17-2.19-.39-.81-.22-1.38-.47-1.99-.91-.87-.62-1.44-1.61-1.44-3.07,0-.9.27-1.7.8-2.39.53-.68,1.2-1.19,2-1.53s1.67-.51,2.58-.51c1.43,0,2.73.38,3.77,1.09,1.02.71,1.71,1.92,1.76,3.38,0,.08-.03.12-.11.12h-1.99c-.07,0-.11-.04-.11-.12,0-.74-.31-1.37-.94-1.86-.62-.48-1.42-.73-2.39-.73-.88,0-1.64.24-2.25.72-.61.48-.92,1.1-.92,1.83.06,1.08.6,1.62,1.57,1.92.71.23,1.04.27,1.84.36.94.12,1.56.2,2.42.43s1.43.5,2.06.97c.89.68,1.38,1.7,1.41,3.27,0,1.35-.6,2.69-1.96,3.61-.88.59-2.28.98-3.93.98-1.85,0-3.4-.52-4.37-1.35-.97-.82-1.51-1.92-1.51-3.12,0-.08.03-.12.11-.12Z"/>
  <path class="cls-1" d="m271.99,68.87c0-.08.04-.11.12-.11h9.8c.07,0,.11.03.11.11v1.66c0,.08-.03.11-.11.11h-7.72c-.07,0-.11.04-.11.12v4.49c0,.08.03.12.11.12h6.81c.07,0,.11.03.11.11v1.65c0,.08-.03.12-.11.12h-6.81c-.07,0-.11.03-.11.11v6.83c0,.08-.03.11-.11.11h-1.87c-.08,0-.12-.03-.12-.11v-15.3Z"/>
  <path class="cls-1" d="m283.69,68.87c0-.08.03-.11.11-.11h10.6c.07,0,.12.03.12.11v1.66c0,.08-.04.11-.12.11h-8.5c-.08,0-.11.04-.11.12v4.49c0,.08.03.12.11.12h7.6c.07,0,.12.03.12.11v1.65c0,.08-.04.12-.12.12h-7.6c-.08,0-.11.03-.11.11v4.96c0,.08.03.11.11.11h8.5c.07,0,.12.03.12.11v1.66c0,.08-.04.11-.12.11h-10.6c-.07,0-.11-.03-.11-.11v-15.3Z"/>
  <path class="cls-1" d="m297.09,68.87c0-.08.03-.11.11-.11h5.69c2.27.01,4.07.82,5.2,2.23,1.12,1.41,1.7,3.35,1.7,5.68s-.58,4.25-1.74,5.6c-1.17,1.35-2.88,2.01-5.16,2.01h-5.69c-.08,0-.11-.03-.11-.11v-15.3Zm2.1,13.43c0,.08.03.11.11.11h3.59c2.97,0,4.69-2.02,4.69-5.74,0-1.85-.42-3.33-1.25-4.41-.83-1.09-1.98-1.62-3.44-1.62h-3.59c-.07,0-.11.04-.11.12v11.55Z"/>
  <path class="cls-1" d="m312.11,68.87c0-.08.03-.11.11-.11h10.6c.08,0,.12.03.12.11v1.66c0,.08-.04.11-.12.11h-8.5c-.07,0-.11.04-.11.12v4.49c0,.08.03.12.11.12h7.6c.08,0,.12.03.12.11v1.65c0,.08-.04.12-.12.12h-7.6c-.07,0-.11.03-.11.11v4.96c0,.08.03.11.11.11h8.5c.08,0,.12.03.12.11v1.66c0,.08-.04.11-.12.11h-10.6c-.08,0-.11-.03-.11-.11v-15.3Z"/>
  <path class="cls-1" d="m325.71,68.87c0-.08.03-.11.11-.11h6.44c2.37-.06,4.55,2.16,4.5,4.71,0,.94-.24,1.78-.72,2.53-.48.76-1.12,1.32-1.91,1.69-.06.03-.07.08-.04.15l2.82,6.33s.01.03.01.04c0,.04-.04.06-.12.06h-1.83c-.11,0-.18-.03-.23-.11l-2.65-5.95c-.02-.08-.07-.11-.15-.11h-4.04c-.08,0-.11.03-.11.11v5.95c0,.08-.03.11-.11.11h-1.87c-.07,0-.11-.03-.11-.11v-15.3Zm2.09,7.25c0,.08.03.11.11.11h4.17c.68-.02,1.28-.3,1.81-.84.52-.54.77-1.17.77-1.92s-.27-1.42-.81-1.99c-.55-.57-1.16-.85-1.86-.85h-4.08c-.08,0-.11.04-.11.12v5.37Z"/>
  <path class="cls-1" d="m343.46,68.87c.02-.08.07-.11.13-.11h2.71c.08,0,.12.03.14.11l5.13,15.3c.01.05-.03.11-.11.11h-2.08c-.05,0-.09-.03-.11-.11l-1.01-3.15c-.01-.08-.06-.11-.16-.11h-6.39c-.07,0-.11.03-.13.11l-1.03,3.15c-.02.08-.05.11-.11.11h-2.05c-.06,0-.15-.02-.13-.11l5.2-15.3Zm-1.23,10.17s-.01.03-.01.04c0,.04.03.06.1.06h5.22c.06,0,.1-.02.1-.06,0-.01,0-.03-.01-.04l-2.57-8.07c-.04-.13-.18-.13-.23,0l-2.59,8.07Z"/>
  <path class="cls-1" d="m351.28,68.87c0-.08.03-.11.11-.11h10.81c.08,0,.12.03.12.11v1.66c0,.08-.04.11-.12.11h-4.25c-.07,0-.11.04-.11.12v13.42c0,.08-.03.11-.11.11h-1.87c-.08,0-.12-.03-.12-.11v-13.45c-.03-.05-.06-.09-.11-.09h-4.25c-.08,0-.11-.03-.11-.11v-1.66Z"/>
  <path class="cls-1" d="m364.21,68.87c0-.08.03-.11.11-.11h1.87c.07,0,.12.03.12.11v15.3c0,.08-.04.11-.12.11h-1.87c-.07,0-.11-.03-.11-.11v-15.3Z"/>
  <path class="cls-1" d="m368.64,76.52c0-1.58.26-2.96.76-4.14.51-1.18,1.29-2.12,2.36-2.81,1.05-.68,2.33-1.02,3.84-1.02s2.79.34,3.84,1.02c1.05.69,1.84,1.62,2.35,2.81.51,1.18.75,2.56.75,4.14s-.25,2.96-.75,4.14c-.51,1.18-1.29,2.12-2.35,2.8-1.05.69-2.34,1.03-3.84,1.03s-2.79-.34-3.84-1.03c-1.07-.68-1.85-1.61-2.36-2.8-.51-1.18-.76-2.56-.76-4.14Zm2.2,0c0,1.93.41,3.42,1.24,4.49.83,1.08,2,1.61,3.53,1.61s2.7-.54,3.53-1.61c.82-1.07,1.23-2.56,1.23-4.49s-.41-3.42-1.23-4.5c-.83-1.07-2-1.6-3.53-1.6s-2.7.54-3.53,1.6c-.83,1.08-1.24,2.57-1.24,4.5Z"/>
  <path class="cls-1" d="m384.87,68.87c0-.08.03-.11.11-.11h3.26c.08,0,.13.03.16.11l6.67,13.23c.07.13.23.11.23-.02v-13.2c0-.08.03-.11.11-.11h1.87c.08,0,.11.03.11.11v15.3c0,.08-.03.11-.11.11h-3.24c-.07,0-.12-.03-.17-.11l-6.68-13.25c-.04-.09-.22-.09-.22.04v13.2c0,.08-.04.11-.12.11h-1.87c-.07,0-.11-.03-.11-.11v-15.3Z"/>
</svg>